<svg width="100" height="36" viewBox="0 0 100 36.13">
  <g data-name="Слой 2">
    <g data-name="Слой 1">
      <path
        d="M72.07 23c1.84-2.95 4.65-3.76 7.85-3.63s5.86 1.35 7.28 4.54v-4.27h5v12.17h7.8v4H87.24v-4.27h-.1c-.12.26-.23.54-.37.79a6.86 6.86 0 01-4.77 3.5 11.88 11.88 0 01-5.92-.19 6.59 6.59 0 01-3.71-2.71l-.25-.36s-.06 0-.12-.08A7.1 7.1 0 0166.8 36a12.38 12.38 0 01-5.21-.26 7.21 7.21 0 01-5.17-6.21 12.77 12.77 0 01.17-4.36A7.21 7.21 0 0163 19.44a12.4 12.4 0 014.66.25 6.89 6.89 0 014.18 2.95zm10.81 4.62a17.24 17.24 0 00-.65-2.72 2.86 2.86 0 00-3-1.74 2.8 2.8 0 00-2.77 1.8 7.65 7.65 0 000 5.61 2.94 2.94 0 003.09 1.8 2.77 2.77 0 002.83-2 26.37 26.37 0 00.5-2.78zm-14.7 0a18.42 18.42 0 00-.51-2.47 2.94 2.94 0 00-3.11-1.95 2.89 2.89 0 00-2.86 2 8 8 0 000 5.22 3 3 0 003.1 2 2.86 2.86 0 002.94-2.17c.26-.88.26-1.73.44-2.7zM6.14 16.54h-5V.41a1.81 1.81 0 01.31 0h9.45a7.64 7.64 0 011.35.15 4.13 4.13 0 013.44 4.67 4.37 4.37 0 01-3.58 4.1 8.52 8.52 0 011.77 1.57C15 12.7 16 14.59 17.1 16.56h-5.48c-.17 0-.39-.25-.49-.44-.89-1.6-1.74-3.22-2.63-4.82A2.06 2.06 0 006.14 10zM6.13 7c1.21-.12 2.35-.19 3.47-.36a1.41 1.41 0 001.09-1.44 1.33 1.33 0 00-1.11-1.43c-1.13-.14-2.27-.15-3.45-.21zM53.15 35.81H48.5a2.8 2.8 0 01-.34-.05v-6.47h-5.43v6.47h-5V19.64h4.93v5.59h5.46v-5.58h5zM0 30.46l4.67-.29c.06.24.11.41.16.58a2.75 2.75 0 003.66 2 1.73 1.73 0 001.3-1.48 1.5 1.5 0 00-1.08-1.5c-1-.33-1.94-.53-2.89-.86a16.92 16.92 0 01-3.08-1.23 4.2 4.2 0 01-.09-7.33 7.54 7.54 0 013.52-1 12.14 12.14 0 014.29.32 4.64 4.64 0 013.61 4.46l-4.62.27c0-.15-.1-.26-.13-.38A2.41 2.41 0 006 22.5a1.15 1.15 0 00-.82 1.11 1 1 0 00.83 1c.86.26 1.75.43 2.62.68s1.87.52 2.76.87a4.49 4.49 0 013.21 4.18 5.07 5.07 0 01-3.1 5 9 9 0 01-4.46.75 17 17 0 01-2.94-.37A5.4 5.4 0 010 30.46zM64 4.9l-4.64.26a.72.72 0 01-.1-.22c-.42-1.72-1.68-2-3-1.81a1.29 1.29 0 00-1.21 1.13c0 .66.43 1 1 1.1 1.24.35 2.51.64 3.76 1a14.17 14.17 0 011.76.64c4 1.76 3.49 6.5.89 8.44a6.47 6.47 0 01-2.87 1.21 13.15 13.15 0 01-6.11-.32 5.34 5.34 0 01-3.58-5.13l4.62-.29c.09.33.16.62.25.91a2.82 2.82 0 004 1.53 1.54 1.54 0 00.86-1.35 1.39 1.39 0 00-.88-1.37c-.7-.3-1.44-.48-2.16-.73a36.12 36.12 0 01-3.71-1.29 4 4 0 01-2.45-4 4.14 4.14 0 012.71-3.8 10.58 10.58 0 018.12 0C63 1.51 63.71 3 64 4.9zM33.65 24.37l-4.34 1c-.06-.14-.13-.27-.18-.39a2.85 2.85 0 00-2.72-1.88 2.88 2.88 0 00-2.86 1.86 8.47 8.47 0 000 5.81 2.39 2.39 0 002.18 1.57 2.75 2.75 0 002.88-1.13 20.92 20.92 0 00.92-1.95l4.2 1.26a6.39 6.39 0 01-4.84 5.36 11.78 11.78 0 01-5.69-.15 6.86 6.86 0 01-4.85-5.35 11.42 11.42 0 010-5.39 6.78 6.78 0 016.14-5.48 14.7 14.7 0 013.92.08 6.2 6.2 0 015.24 4.78z" />
    </g>
  </g>
</svg>
